<svg id="visual" viewBox="0 0 900 600" width="900" height="600" xmlns="http://www.w3.org/2000/svg" xmlns:xlink="http://www.w3.org/1999/xlink" version="1.1"><g transform="translate(448.1002631973222 264.8147034621017)"><path d="M157.4 -248.2C208.5 -243.2 257.5 -210.1 288.3 -164C319 -118 331.5 -59 308.4 -13.3C285.3 32.3 226.7 64.7 198.7 115.5C170.7 166.3 173.3 235.6 145.3 272.6C117.3 309.6 58.7 314.3 -1.9 317.6C-62.5 320.9 -125 322.8 -155.9 287.5C-186.8 252.2 -186.1 179.6 -217 125.5C-247.9 71.3 -310.4 35.7 -316.1 -3.2C-321.7 -42.2 -270.4 -84.3 -223.9 -111.4C-177.3 -138.5 -135.5 -150.4 -99 -163.8C-62.5 -177.3 -31.3 -192.1 11 -211.1C53.2 -230.1 106.3 -253.2 157.4 -248.2" fill="#390b64"></path></g></svg>