<!DOCTYPE svg PUBLIC "-//W3C//DTD SVG 1.1//EN" "http://www.w3.org/Graphics/SVG/1.1/DTD/svg11.dtd">
<!-- Uploaded to: SVG Repo, www.svgrepo.com, Transformed by: SVG Repo Mixer Tools -->
<svg fill="#8018e0" version="1.1" id="Capa_1" xmlns="http://www.w3.org/2000/svg" xmlns:xlink="http://www.w3.org/1999/xlink" width="800px" height="800px" viewBox="0 0 66.824 66.824" xml:space="preserve">
<g id="SVGRepo_bgCarrier" stroke-width="0"/>
<g id="SVGRepo_tracerCarrier" stroke-linecap="round" stroke-linejoin="round"/>
<g id="SVGRepo_iconCarrier"> <g> <path d="M65.66,12.408H33.755v-0.002L5.726,3.887C5.368,3.778,4.987,3.843,4.691,4.065c-0.296,0.219-0.472,0.57-0.472,0.936v7.407 H1.168C0.526,12.408,0,12.934,0,13.576v41.286c0,0.644,0.526,1.168,1.168,1.168h24.216v4.624h-4.429v1.168v1.167h24.912v-1.167 v-1.168H41.44V56.03h24.216c0.641,0,1.168-0.524,1.168-1.168V13.576C66.828,12.93,66.306,12.408,65.66,12.408z M6.552,12.408V6.578 l19.179,5.831l3.845,1.168l2.672,0.813v0.355v38.489L6.555,45.423V14.744v-1.168L6.552,12.408L6.552,12.408z M64.492,53.696h-29.91 V14.744h4.588v4.333l2.274-1.438l2.274,1.438v-4.333h20.78v38.95h-0.007V53.696z M28.288,21.885l-9.101-2.77v-1.538l9.101,2.774 V21.885z M28.288,27.749l-9.101-2.771v-1.542l9.101,2.772V27.749z M28.288,33.66l-18.209-5.539v-1.534l18.209,5.536V33.66z M28.288,39.518l-18.209-5.535v-1.54l18.209,5.535V39.518z M28.288,45.435l-18.209-5.538v-1.538l18.209,5.534V45.435z M11.637,23.135l0.472-1.546l2.743,0.832l0.488,1.838l0.798,0.243l0.807,0.243l-2.558-9.089l-0.876-0.264l-0.876-0.264 l-2.556,7.533l0.786,0.241L11.637,23.135z M13.492,17.242l0.953,3.627l-1.915-0.582L13.492,17.242z M50.669,45.229 c-0.378,0-0.757,0-1.136,0c0-1.615,0-3.237,0-4.85c0.388,0,0.78,0,1.168,0C50.679,41.983,50.74,43.674,50.669,45.229z M53.674,39.269c0.853,1.342,1.599,2.792,2.427,4.147c-0.324,0.178-0.646,0.352-0.946,0.552c-0.896-1.312-1.625-2.775-2.489-4.119 C52.957,39.611,53.363,39.49,53.674,39.269z M46.52,39.269c0.343,0.16,0.625,0.381,0.986,0.527 c-0.753,1.424-1.588,2.773-2.368,4.174c-0.369-0.13-0.647-0.351-0.977-0.524C44.844,41.947,45.749,40.679,46.52,39.269z M59.357,40.19c-1.391-0.789-2.828-1.528-4.179-2.367c0.169-0.375,0.338-0.744,0.552-1.075c1.374,0.828,2.783,1.62,4.143,2.462 C59.734,39.565,59.513,39.846,59.357,40.19z M40.288,39.178c1.433-0.782,2.814-1.605,4.206-2.42c0.16,0.362,0.365,0.68,0.557,1.013 c-1.3,0.896-2.787,1.594-4.146,2.427C40.689,39.862,40.464,39.552,40.288,39.178z M50.421,38.906 c1.979-0.142,3.472-1.438,4.083-3.043c0.721-1.883,0.036-4.002-1.255-5.156c-0.27-0.235-0.757-0.406-0.862-0.736 c-0.142-0.446-0.027-1.067-0.027-1.598c0-0.565,0-1.077,0-1.659c-1.25-0.408-3.243-0.406-4.484,0c0,0.535,0,1.089,0,1.659 c0,0.541,0.128,1.236-0.036,1.658c-0.064,0.178-0.306,0.292-0.457,0.4c-1.095,0.763-1.979,2.171-1.966,3.841 C45.432,36.942,47.633,39.098,50.421,38.906z M47.783,31.564c0.306-0.254,0.722-0.401,0.981-0.798 c0.347-0.535,0.273-1.283,0.273-2.21c0.611-0.185,1.496-0.136,2.149-0.032c-0.046,1.018-0.019,1.966,0.433,2.482 c0.227,0.26,0.652,0.416,0.954,0.677c0.723,0.634,1.136,1.678,1.072,2.736c-0.105,1.728-1.429,3.155-3.226,3.311 c-1.228,0.109-2.254-0.442-2.856-1.072c-0.524-0.543-0.976-1.407-0.98-2.393C46.582,33.002,47.122,32.113,47.783,31.564z"/> </g> </g>
</svg>